<?xml version="1.0" standalone="no"?>
<!DOCTYPE svg PUBLIC "-//W3C//DTD SVG 20010904//EN"
 "http://www.w3.org/TR/2001/REC-SVG-20010904/DTD/svg10.dtd">
<svg version="1.0" xmlns="http://www.w3.org/2000/svg"
 width="700.000000pt" height="700.000000pt" viewBox="0 0 700.000000 700.000000"
 preserveAspectRatio="xMidYMid meet">
<metadata>
Created by potrace 1.14, written by Peter Selinger 2001-2017
</metadata>
<g transform="translate(0.000000,700.000000) scale(0.100000,-0.100000)"
fill="#000000" stroke="none">
<path d="M3070 6922 c-7 -3 -10 -228 -10 -661 l0 -657 -37 -2 c-57 -4 -258
-49 -348 -78 -186 -60 -406 -159 -520 -234 -129 -85 -182 -122 -207 -143 -14
-12 -50 -42 -79 -66 -213 -177 -437 -463 -562 -719 -77 -157 -157 -381 -182
-513 -2 -11 -6 -28 -9 -37 -6 -19 -12 -62 -31 -197 -13 -90 -13 -460 -1 -540
63 -404 169 -687 373 -992 382 -573 1013 -943 1703 -999 972 -80 1891 474
2274 1371 82 191 140 399 162 580 3 22 7 46 9 53 3 9 149 12 685 12 l680 0 0
90 0 90 -675 0 -675 0 0 48 c-2 173 -18 336 -45 464 -7 31 -14 28 200 83 77
20 169 45 205 55 36 10 162 44 280 76 118 31 265 70 325 86 61 17 115 31 120
32 6 1 49 12 96 25 l86 23 -11 42 c-5 22 -11 42 -11 43 -1 1 -68 -16 -151 -38
-177 -48 -797 -214 -1006 -270 -81 -21 -149 -39 -152 -39 -2 0 -19 46 -36 102
-39 125 -78 225 -130 331 -32 64 -37 84 -28 93 7 6 254 150 548 319 294 170
549 317 566 327 l32 19 -22 39 -21 39 -45 -26 c-82 -49 -404 -235 -450 -261
-25 -13 -85 -48 -135 -77 -49 -29 -106 -62 -125 -73 -106 -60 -353 -204 -375
-218 -30 -20 -24 -25 -105 96 -66 100 -116 164 -188 244 l-45 48 457 457 c251
251 456 461 456 466 0 6 -26 36 -58 68 l-58 57 -461 -461 -461 -461 -88 73
c-72 59 -205 151 -308 214 -14 9 -9 23 45 115 34 58 72 123 84 145 13 22 123
213 245 425 123 212 234 405 248 430 13 25 28 50 33 55 4 6 -8 19 -31 32 -43
25 -42 26 -82 -47 -14 -25 -99 -173 -190 -330 -90 -157 -226 -393 -303 -525
-76 -132 -139 -242 -141 -244 -2 -2 -48 17 -103 42 -94 44 -298 116 -369 132
-20 4 -32 12 -29 19 4 10 112 409 164 606 8 30 23 87 33 125 10 39 45 169 78
290 l59 220 -40 12 c-22 7 -42 11 -44 9 -3 -2 -182 -662 -198 -726 -26 -109
-138 -517 -143 -522 -4 -3 -41 0 -82 7 -111 19 -210 28 -347 29 -76 0 -123 4
-124 11 0 5 -1 297 -1 648 0 475 -3 637 -11 638 -34 3 -148 4 -157 1z m415
-1476 c157 -9 261 -25 259 -42 -1 -5 -12 -51 -25 -101 -17 -67 -28 -93 -39
-93 -8 1 -55 6 -105 13 -49 7 -145 13 -212 12 -103 0 -123 3 -124 15 -1 21 -1
161 0 182 1 14 13 18 59 20 31 2 62 2 67 1 6 -1 60 -4 120 -7z m-425 -121 c0
-112 1 -110 -55 -119 -105 -15 -272 -65 -392 -116 -238 -101 -416 -221 -599
-404 -112 -112 -161 -171 -233 -278 -68 -102 -69 -104 -130 -226 -244 -490
-259 -1066 -40 -1577 206 -480 621 -869 1104 -1033 149 -51 172 -57 315 -83
199 -36 483 -31 695 12 692 142 1254 670 1439 1351 15 53 32 130 39 170 l12
73 108 3 c125 3 117 16 88 -133 -42 -212 -88 -352 -181 -540 -48 -98 -124
-229 -162 -280 -204 -271 -421 -472 -658 -609 -195 -113 -505 -229 -675 -252
-16 -3 -40 -7 -52 -9 -94 -21 -476 -28 -598 -12 -608 82 -1130 400 -1477 902
-59 85 -136 222 -180 320 -37 82 -98 242 -98 257 0 7 -7 31 -14 53 -8 22 -17
56 -20 76 -3 20 -8 42 -10 50 -40 111 -53 546 -23 734 68 417 224 759 487
1064 244 285 571 505 919 622 124 41 311 86 364 88 l27 1 0 -105z m942 21
c137 -45 288 -110 288 -124 0 -4 -11 -24 -25 -44 -14 -20 -25 -40 -25 -43 0
-4 -12 -26 -26 -50 l-25 -44 -57 26 c-84 39 -335 122 -346 116 -5 -4 -7 0 -4
8 3 8 16 56 29 107 18 72 27 92 41 92 10 0 78 -20 150 -44z m478 -227 c104
-67 260 -189 260 -203 0 -13 -133 -146 -147 -146 -6 0 -13 3 -15 8 -6 13 -160
127 -233 172 -38 24 -71 45 -73 46 -8 6 95 184 107 184 3 0 49 -28 101 -61z
m-1000 -245 c36 -3 76 -7 90 -8 18 -2 24 -8 23 -22 -1 -11 -61 -240 -133 -509
-71 -268 -130 -491 -130 -494 0 -4 18 -12 41 -18 30 -8 42 -8 44 1 3 6 14 47
25 91 28 106 43 160 75 280 15 55 29 107 31 115 1 8 33 125 70 260 36 135 67
251 67 258 0 10 10 12 36 7 48 -9 164 -48 234 -79 l56 -25 -120 -208 c-67
-114 -131 -226 -144 -248 -12 -22 -70 -123 -129 -224 -58 -101 -106 -187 -106
-191 0 -4 15 -17 34 -28 l35 -21 39 67 c22 37 57 96 77 132 21 36 61 106 90
155 29 50 105 182 170 295 65 113 122 210 127 217 11 14 45 -4 152 -80 130
-92 163 -34 -259 -456 -203 -203 -371 -373 -372 -378 -2 -5 24 -35 57 -68 l60
-60 376 375 375 375 45 -50 c41 -46 147 -196 141 -201 -2 -1 -566 -327 -627
-362 -120 -68 -237 -136 -247 -144 -14 -12 24 -81 41 -75 12 5 522 298 571
328 17 10 37 22 45 26 8 4 58 32 110 62 135 79 149 86 160 75 22 -23 130 -318
119 -328 -3 -3 -359 -99 -844 -228 -66 -18 -121 -33 -123 -34 -2 -1 2 -21 9
-44 10 -34 16 -41 33 -37 12 3 181 48 376 101 195 52 403 109 463 125 59 16
107 28 107 27 0 -1 5 -29 11 -62 6 -32 12 -110 13 -171 l3 -113 -509 0 -508 0
0 -90 0 -90 499 0 499 0 -15 -67 c-109 -523 -505 -966 -1015 -1136 -165 -55
-269 -71 -463 -72 -211 0 -252 4 -406 44 -426 110 -787 402 -983 796 -118 237
-168 458 -161 720 4 162 29 309 74 444 41 122 141 329 164 339 4 2 7 8 7 14 0
20 119 167 206 254 194 194 438 332 697 398 l92 23 3 -523 2 -523 89 0 89 0 0
497 c1 273 1 514 2 534 0 34 2 37 33 40 38 4 118 1 207 -8z m1457 -153 c87
-102 89 -105 154 -201 33 -50 58 -94 55 -99 -6 -9 -164 -101 -175 -101 -3 0
-18 19 -33 43 -37 59 -140 194 -177 235 -17 18 -31 36 -31 40 0 6 141 152 146
152 1 0 28 -31 61 -69z m292 -438 c57 -115 127 -301 145 -389 l7 -31 -73 -21
c-114 -34 -138 -37 -138 -19 0 31 -68 223 -112 318 l-45 96 86 51 c47 27 89
51 93 51 4 1 21 -25 37 -56z m186 -565 c4 -29 9 -62 11 -73 9 -49 18 -178 18
-265 l1 -95 -107 -3 -108 -3 -2 113 c0 62 -2 124 -4 138 -2 14 -6 50 -10 80
-15 119 -20 111 76 136 121 31 117 33 125 -28z"/>
</g>
</svg>
